<?xml version="1.0" standalone="no"?>
<!DOCTYPE svg PUBLIC "-//W3C//DTD SVG 20010904//EN"
 "http://www.w3.org/TR/2001/REC-SVG-20010904/DTD/svg10.dtd">
<svg version="1.0" xmlns="http://www.w3.org/2000/svg"
 width="260.000000pt" height="260.000000pt" viewBox="0 0 260.000000 260.000000"
 preserveAspectRatio="xMidYMid meet">
<metadata>
Created by potrace 1.14, written by Peter Selinger 2001-2017
</metadata>
<g transform="translate(0.000000,260.000000) scale(0.100000,-0.100000)"
fill="#000000" stroke="none">
<path d="M370 2593 c-47 -17 -82 -76 -82 -138 0 -81 50 -138 121 -139 l36 -1
1 -86 c6 -368 252 -744 569 -871 65 -26 176 -56 198 -52 9 1 17 -1 17 -5 0 -5
-12 -8 -27 -9 -52 -2 -112 -19 -193 -52 -231 -95 -430 -325 -515 -593 -31 -96
-55 -231 -55 -303 0 -30 -3 -54 -7 -55 -71 -8 -88 -16 -118 -54 -45 -60 -33
-157 25 -210 22 -20 37 -20 960 -20 923 0 938 0 960 20 94 85 55 251 -60 260
-17 1 -32 4 -34 6 -2 2 -6 45 -10 94 -29 391 -262 735 -586 863 -58 24 -79 29
-148 41 -51 9 -62 18 -25 19 26 1 43 4 91 16 360 92 637 463 668 896 l7 95 34
2 c117 6 158 172 63 258 -22 20 -38 20 -949 22 -509 1 -933 -1 -941 -4z"/>
</g>
</svg>
